# xmcd
#
# Track frame offsets: 
#        150
#        63647
#        89436
#        109080
#        135239
#        166758
#        198576
#        236633
#
# Disc length: 3750 seconds
#
# Revision: 0
# Processed by: cddbd v1.5.2PL0 Copyright (c) Steve Scherf et al.
# Submitted via: ExactAudioCopyFreeDBPlugin 1.0
#
DISCID=670ea408
DTITLE=Corey Medina - Coffee Sessions
DYEAR=2019
DGENRE=Blues
TTITLE0=Track One
TTITLE1=Funk Tune
TTITLE2=The Rest
TTITLE3=Hold Fast
TTITLE4=Old Medicine
TTITLE5=Home
TTITLE6=Grave Clothes 2.0
TTITLE7=Old Dog Crying (Storm Intro)
EXTD=
EXTT0=
EXTT1=
EXTT2=
EXTT3=
EXTT4=
EXTT5=
EXTT6=
EXTT7=
PLAYORDER=
